# This file uses centimeters as units for non-parametric coordinates.

v -0.724486 1.706574 -0.040040
v -0.272810 0.823750 -0.040040
v -1.206667 1.293071 -0.040040
v -0.754892 2.767169 -0.040040
v -0.988231 2.747054 -0.182700
v -1.515658 1.869121 -0.040040
v -0.656209 3.851609 -0.040040
v -1.233128 2.890404 -0.040040
v -1.172823 1.549943 -0.265060
v -0.058137 2.764818 -0.040040
v -0.616691 1.855086 -0.040040
v -0.541226 2.732496 -0.040040
v 0.208199 3.827617 -0.040040
v 0.148999 4.421524 -0.182700
v -0.522705 3.570384 -0.040040
v 0.316141 4.451915 -0.040040
v 0.409782 5.161784 -0.040040
v -0.026424 4.469559 -0.040040
v -0.173851 3.769382 -0.265060
v -0.327045 2.655708 -0.265060
v 1.326958 1.203714 -0.040040
v -0.006120 0.775010 -0.040040
v -0.444956 1.860802 -0.040040
v 1.490996 2.231189 -0.040040
v 0.924581 2.484583 -0.265060
v 0.097211 2.647720 -0.040040
v 0.954687 3.486662 -0.040040
v 0.557190 4.650847 -0.040040
v 0.387956 3.754179 -0.040040
v 0.464004 3.625321 -0.182700
v -0.007644 1.849520 -0.265060
v 0.923106 1.225646 -0.265060
v -0.724486 1.706574 0.040040
v -0.272810 0.823750 0.040040
v -1.206667 1.293071 0.040040
v -0.754892 2.767169 0.040040
v -0.988231 2.747054 0.182700
v -1.515658 1.869121 0.040040
v -0.656209 3.851609 0.040040
v -1.233128 2.890404 0.040040
v -1.172823 1.549943 0.265060
v -0.058137 2.764818 0.040040
v -0.616691 1.855086 0.040040
v -0.541226 2.732496 0.040040
v 0.208199 3.827617 0.040040
v 0.148999 4.421524 0.182700
v -0.522705 3.570384 0.040040
v 0.316141 4.451915 0.040040
v 0.409782 5.161784 0.040040
v -0.026424 4.469559 0.040040
v -0.173851 3.769382 0.265060
v -0.327045 2.655708 0.265060
v 1.326958 1.203714 0.040040
v -0.006120 0.775010 0.040040
v -0.444956 1.860802 0.040040
v 1.490996 2.231189 0.040040
v 0.924581 2.484583 0.265060
v 0.097211 2.647720 0.040040
v 0.954687 3.486662 0.040040
v 0.557190 4.650847 0.040040
v 0.387956 3.754179 0.040040
v 0.464004 3.625321 0.182700
v -0.007644 1.849520 0.265060
v 0.923106 1.225646 0.265060
vt 0.268000 0.881300
vt 0.263000 0.933300
vt 0.249100 0.928100
vt 0.941600 0.842000
vt 0.912200 0.867900
vt 0.903800 0.863100
vt 0.904600 0.845300
vt 0.515200 0.905500
vt 0.501700 0.912000
vt 0.493300 0.869100
vt 0.869100 0.841900
vt 0.887900 0.870600
vt 0.924500 0.925400
vt 0.938900 0.909400
vt 0.937200 0.923900
vt 0.288100 0.924500
vt 0.286200 0.911800
vt 0.336900 0.924300
vt 0.501400 0.912600
vt 0.545100 0.925000
vt 0.499700 0.925400
vt 0.121700 0.852100
vt 0.159800 0.850000
vt 0.159800 0.861000
vt 0.118800 0.877300
vt 0.152800 0.873800
vt 0.156300 0.883800
vt 0.939200 0.893500
vt 0.944500 0.902900
vt 0.898200 0.889500
vt 0.862600 0.876300
vt 0.868500 0.843000
vt 0.871900 0.872500
vt 0.289100 0.941100
vt 0.289100 0.930300
vt 0.336000 0.950800
vt 0.547600 0.945800
vt 0.513200 0.943900
vt 0.499700 0.926900
vt 0.731200 0.906000
vt 0.733200 0.934100
vt 0.719600 0.944300
vt 0.544300 0.913700
vt 0.515600 0.915700
vt 0.515800 0.894600
vt 0.656300 0.899700
vt 0.696400 0.899800
vt 0.701900 0.915300
vt 0.284500 0.911800
vt 0.286400 0.940300
vt 0.276000 0.940200
vt 0.878600 0.927000
vt 0.919300 0.927100
vt 0.917500 0.938900
vt 0.947800 0.940700
vt 0.053700 0.940400
vt 0.102800 0.938700
vt 0.097000 0.945000
vt 0.160300 0.865400
vt 0.101700 0.870600
vt 0.113700 0.849500
vt 0.862400 0.925500
vt 0.862400 0.881700
vt 0.877400 0.888200
vt 0.659600 0.850000
vt 0.674500 0.850800
vt 0.652700 0.891500
vt 0.901100 0.922900
vt 0.931800 0.883100
vt 0.883300 0.871000
vt 0.919100 0.871300
vt 0.339400 0.883400
vt 0.336800 0.922900
vt 0.287300 0.911900
vt 0.152200 0.950800
vt 0.476100 0.906300
vt 0.454100 0.853700
vt 0.489500 0.868900
vt 0.725000 0.874100
vt 0.705100 0.903700
vt 0.708900 0.873800
vt 0.456100 0.929100
vt 0.352300 0.856200
vt 0.288000 0.888000
vt 0.053300 0.850200
vt 0.336200 0.944000
vt 0.286200 0.929100
vt 0.336600 0.929100
vt 0.896200 0.901100
vt 0.935300 0.900700
vt 0.893200 0.910300
vt 0.905700 0.923000
vt 0.526200 0.853900
vt 0.541200 0.853700
vt 0.537500 0.896100
vt 0.745300 0.890800
vt 0.745500 0.931000
vt 0.729100 0.901000
vt 0.936700 0.907400
vt 0.922300 0.923400
vt 0.922400 0.910600
vt 0.353000 0.908500
vt 0.341100 0.903500
vt 0.353100 0.856200
vt 0.501300 0.926900
vt 0.546700 0.928600
vt 0.544400 0.941300
vt 0.745500 0.850500
vt 0.745700 0.890700
vt 0.728500 0.881700
vt 0.056300 0.937600
vt 0.058400 0.899500
vt 0.067300 0.937600
vt 0.058500 0.857900
vt 0.091400 0.867200
vt 0.053300 0.867100
vt 0.862100 0.931000
vt 0.854500 0.923300
vt 0.862000 0.882800
vt 0.865500 0.842500
vt 0.859700 0.875800
vt 0.852300 0.869000
vt 0.248500 0.951100
vt 0.252600 0.941000
vt 0.299600 0.949600
vt 0.487200 0.864300
vt 0.454600 0.853200
vt 0.506100 0.853600
vt 0.730900 0.905500
vt 0.721300 0.931900
vt 0.720700 0.891900
vt 0.502400 0.876400
vt 0.520000 0.853700
vt 0.519900 0.888100
vt 0.713800 0.863600
vt 0.675700 0.851300
vt 0.723900 0.850500
vt 0.287500 0.904500
vt 0.276000 0.930600
vt 0.277700 0.901000
vt 0.884000 0.929800
vt 0.923100 0.941000
vt 0.882400 0.941700
vt 0.852900 0.935100
vt 0.101000 0.956100
vt 0.053300 0.944200
vt 0.096600 0.948800
vt 0.110100 0.872000
vt 0.159400 0.904100
vt 0.110800 0.896300
vt 0.943400 0.898800
vt 0.918900 0.862500
vt 0.952300 0.885000
vt 0.666800 0.944500
vt 0.652100 0.941700
vt 0.655400 0.899700
vt 0.952400 0.843000
vt 0.882500 0.873900
vt 0.931000 0.886000
vt 0.914300 0.890600
vt 0.252100 0.847900
vt 0.291200 0.853600
vt 0.252600 0.898600
vt 0.151800 0.954600
vt 0.461000 0.945600
vt 0.499700 0.903700
vt 0.499500 0.943500
vt 0.709300 0.900600
vt 0.721400 0.934100
vt 0.705700 0.930500
vt 0.488600 0.875500
vt 0.320500 0.846600
vt 0.276100 0.902900
vt 0.057800 0.867300
vt 0.052800 0.926200
vt 0.052800 0.867300
vt 0.056600 0.867300
vt 0.056600 0.926200
vt 0.247900 0.918900
vt 0.247900 0.847200
vt 0.251700 0.847200
vt 0.251700 0.918900
vt 0.652700 0.892400
vt 0.694200 0.892400
vt 0.694200 0.895300
vt 0.652700 0.895300
vt 0.952200 0.890100
vt 0.952200 0.930700
vt 0.949200 0.930700
vt 0.949200 0.890100
vt 0.688300 0.899500
vt 0.652700 0.899500
vt 0.652700 0.896600
vt 0.688300 0.896600
vt 0.159300 0.904500
vt 0.159300 0.938400
vt 0.155400 0.938400
vt 0.155400 0.904500
vt 0.320200 0.847200
vt 0.349900 0.847200
vt 0.349900 0.851000
vt 0.320200 0.851000
vt 0.852600 0.916100
vt 0.855500 0.916700
vt 0.923400 0.900300
vt 0.893200 0.900300
vt 0.893200 0.897300
vt 0.923400 0.897300
vt 0.720500 0.885600
vt 0.720500 0.913600
vt 0.717600 0.913600
vt 0.717600 0.885600
vt 0.341100 0.952000
vt 0.341100 0.905800
vt 0.344900 0.905800
vt 0.344900 0.952000
vt 0.151900 0.873600
vt 0.112800 0.873600
vt 0.112800 0.869800
vt 0.151900 0.869800
vt 0.268200 0.930700
vt 0.268200 0.881900
vt 0.272000 0.881900
vt 0.272000 0.930700
vt 0.542700 0.899200
vt 0.542700 0.853700
vt 0.546400 0.853700
vt 0.546400 0.899200
vt 0.940200 0.936500
vt 0.940200 0.903500
vt 0.943200 0.903500
vt 0.943200 0.936500
vt 0.944700 0.938500
vt 0.944700 0.903500
vt 0.947700 0.903500
vt 0.947700 0.938500
vt 0.521500 0.894900
vt 0.521500 0.854300
vt 0.525200 0.854300
vt 0.525200 0.894900
vt 0.286200 0.924900
vt 0.336600 0.924900
vt 0.336600 0.928700
vt 0.286200 0.928700
vn -0.367014 0.258045 -0.893708
vn -0.382030 0.236418 -0.893398
vn -0.382030 0.236418 -0.893398
vn -0.304096 -0.606792 -0.734390
vn -0.304880 -0.606398 -0.734391
vn -0.305665 -0.606003 -0.734390
vn 0.384394 0.195799 -0.902166
vn 0.383886 0.196793 -0.902166
vn 0.384394 0.195799 -0.902166
vn -0.411577 0.184923 -0.892417
vn -0.411577 0.184923 -0.892417
vn -0.431771 0.131020 -0.892417
vn -0.424726 0.198654 -0.883258
vn -0.446561 0.142965 -0.883258
vn -0.446561 0.142965 -0.883258
vn -0.730956 -0.393626 -0.557460
vn -0.731465 -0.392680 -0.557459
vn -0.731465 -0.392680 -0.557459
vn 0.523898 -0.044316 -0.850627
vn 0.523898 -0.044316 -0.850627
vn 0.519754 -0.074848 -0.851031
vn 0.523912 -0.045429 -0.850560
vn 0.525433 0.021640 -0.850560
vn 0.523912 -0.045429 -0.850560
vn 0.450507 -0.006966 -0.892746
vn 0.445954 -0.064263 -0.892746
vn 0.450507 -0.006966 -0.892746
vn -0.536348 0.337946 -0.773384
vn -0.536348 0.337946 -0.773384
vn -0.536348 0.337946 -0.773384
vn 0.655815 -0.086488 -0.749951
vn 0.655815 -0.086488 -0.749951
vn 0.655815 -0.086488 -0.749951
vn 0.670172 -0.154749 -0.725894
vn 0.670172 -0.154749 -0.725894
vn 0.647464 -0.232097 -0.725894
vn 0.661334 -0.524834 -0.535897
vn 0.722770 -0.436369 -0.535897
vn 0.661334 -0.524834 -0.535897
vn -0.544723 0.316806 -0.776473
vn -0.544723 0.316806 -0.776473
vn -0.550927 0.305890 -0.776473
vn -0.639225 0.417053 -0.646111
vn -0.647407 0.404233 -0.646111
vn -0.647407 0.404233 -0.646111
vn -0.584251 0.026401 -0.811144
vn -0.577149 0.094577 -0.811144
vn -0.577149 0.094577 -0.811144
vn 0.515528 -0.161578 -0.841501
vn 0.518645 -0.151275 -0.841501
vn 0.518645 -0.151275 -0.841501
vn 0.529803 -0.070607 -0.845177
vn 0.517903 -0.132109 -0.845177
vn 0.517903 -0.132109 -0.845177
vn 0.659573 -0.113342 -0.743045
vn 0.657184 -0.126461 -0.743045
vn 0.657184 -0.126461 -0.743045
vn -0.689153 0.175692 -0.702994
vn -0.704976 0.093854 -0.702994
vn -0.704976 0.093854 -0.702994
vn -0.703652 0.060021 -0.708005
vn -0.690285 0.149115 -0.708005
vn -0.690285 0.149115 -0.708005
vn -0.808065 0.158390 -0.567401
vn -0.809616 0.150334 -0.567382
vn -0.809616 0.150334 -0.567382
vn 0.305776 0.101368 -0.946692
vn 0.304765 0.104414 -0.946687
vn 0.304765 0.104414 -0.946687
vn -0.453088 -0.183495 -0.872377
vn -0.453561 -0.182322 -0.872377
vn -0.453561 -0.182322 -0.872377
vn 0.481719 -0.081327 -0.872544
vn 0.481719 -0.081327 -0.872544
vn 0.474668 -0.112329 -0.872968
vn -0.136431 -0.202956 -0.969637
vn -0.136168 -0.203132 -0.969637
vn -0.135905 -0.203308 -0.969637
vn 0.257468 -0.801245 -0.540108
vn 0.258504 -0.800912 -0.540108
vn 0.257468 -0.801245 -0.540108
vn -0.269115 -0.037263 -0.962387
vn -0.269115 -0.037263 -0.962387
vn -0.271627 -0.005521 -0.962387
vn -0.725669 0.271558 -0.632187
vn -0.725669 0.271558 -0.632187
vn -0.752458 0.184789 -0.632187
vn -0.190874 0.314449 -0.929887
vn -0.229354 0.287590 -0.929887
vn -0.190874 0.314449 -0.929887
vn -0.431551 0.292321 -0.853412
vn -0.390824 0.344884 -0.853412
vn -0.431551 0.292321 -0.853412
vn 0.188222 -0.310070 -0.931895
vn 0.207250 -0.296907 -0.932145
vn 0.226166 -0.283585 -0.931895
vn 0.098890 0.147571 -0.984095
vn 0.099081 0.147443 -0.984095
vn 0.108071 0.140546 -0.984158
vn 0.453686 0.187964 -0.871113
vn 0.465470 0.158889 -0.870685
vn 0.480864 0.103337 -0.870685
vn 0.313611 0.144271 -0.938528
vn 0.313611 0.144271 -0.938528
vn 0.294577 0.179972 -0.938528
vn -0.382030 0.236418 0.893398
vn -0.367014 0.258045 0.893708
vn -0.382030 0.236418 0.893398
vn -0.304880 -0.606398 0.734391
vn -0.304096 -0.606792 0.734390
vn -0.305665 -0.606003 0.734390
vn 0.383886 0.196793 0.902166
vn 0.384394 0.195799 0.902166
vn 0.384394 0.195799 0.902166
vn -0.411577 0.184923 0.892417
vn -0.411577 0.184923 0.892417
vn -0.431771 0.131020 0.892417
vn -0.446561 0.142965 0.883258
vn -0.424726 0.198654 0.883258
vn -0.446561 0.142965 0.883258
vn -0.731465 -0.392680 0.557459
vn -0.730956 -0.393626 0.557460
vn -0.731465 -0.392680 0.557459
vn 0.523898 -0.044316 0.850627
vn 0.523898 -0.044316 0.850627
vn 0.519754 -0.074848 0.851031
vn 0.525433 0.021640 0.850560
vn 0.523912 -0.045429 0.850560
vn 0.523912 -0.045429 0.850560
vn 0.445954 -0.064263 0.892746
vn 0.450507 -0.006966 0.892746
vn 0.450507 -0.006966 0.892746
vn -0.536348 0.337946 0.773384
vn -0.536348 0.337946 0.773384
vn -0.536348 0.337946 0.773384
vn 0.655815 -0.086488 0.749951
vn 0.655815 -0.086488 0.749951
vn 0.655815 -0.086488 0.749951
vn 0.670172 -0.154749 0.725894
vn 0.670172 -0.154749 0.725894
vn 0.647464 -0.232097 0.725894
vn 0.722770 -0.436369 0.535897
vn 0.661334 -0.524834 0.535897
vn 0.661334 -0.524834 0.535897
vn -0.544723 0.316806 0.776473
vn -0.544723 0.316806 0.776473
vn -0.550927 0.305890 0.776473
vn -0.647407 0.404233 0.646111
vn -0.639225 0.417053 0.646111
vn -0.647407 0.404233 0.646111
vn -0.577149 0.094577 0.811144
vn -0.584251 0.026401 0.811144
vn -0.577149 0.094577 0.811144
vn 0.518645 -0.151275 0.841501
vn 0.515528 -0.161578 0.841501
vn 0.518645 -0.151275 0.841501
vn 0.517903 -0.132109 0.845177
vn 0.529803 -0.070607 0.845177
vn 0.517903 -0.132109 0.845177
vn 0.657184 -0.126461 0.743045
vn 0.659573 -0.113342 0.743045
vn 0.657184 -0.126461 0.743045
vn -0.704976 0.093854 0.702994
vn -0.689153 0.175692 0.702994
vn -0.704976 0.093854 0.702994
vn -0.690285 0.149115 0.708005
vn -0.703652 0.060021 0.708005
vn -0.690285 0.149115 0.708005
vn -0.809616 0.150334 0.567382
vn -0.808065 0.158390 0.567401
vn -0.809616 0.150334 0.567382
vn 0.304765 0.104414 0.946687
vn 0.305776 0.101368 0.946692
vn 0.304765 0.104414 0.946687
vn -0.453561 -0.182322 0.872377
vn -0.453088 -0.183495 0.872377
vn -0.453561 -0.182322 0.872377
vn 0.481719 -0.081327 0.872544
vn 0.481719 -0.081327 0.872544
vn 0.474668 -0.112329 0.872968
vn -0.136168 -0.203132 0.969637
vn -0.136431 -0.202956 0.969637
vn -0.135905 -0.203308 0.969637
vn 0.258504 -0.800912 0.540108
vn 0.257468 -0.801245 0.540108
vn 0.257468 -0.801245 0.540108
vn -0.269115 -0.037263 0.962387
vn -0.269115 -0.037263 0.962387
vn -0.271627 -0.005521 0.962387
vn -0.725669 0.271558 0.632187
vn -0.725669 0.271558 0.632187
vn -0.752458 0.184789 0.632187
vn -0.229354 0.287590 0.929887
vn -0.190874 0.314449 0.929887
vn -0.190874 0.314449 0.929887
vn -0.390824 0.344884 0.853412
vn -0.431551 0.292321 0.853412
vn -0.431551 0.292321 0.853412
vn 0.207250 -0.296907 0.932145
vn 0.188222 -0.310070 0.931895
vn 0.226166 -0.283585 0.931895
vn 0.099081 0.147443 0.984095
vn 0.098890 0.147571 0.984095
vn 0.108071 0.140546 0.984158
vn 0.465470 0.158889 0.870685
vn 0.453686 0.187964 0.871113
vn 0.480864 0.103337 0.870685
vn 0.313593 0.144177 0.938548
vn 0.313593 0.144177 0.938548
vn 0.294570 0.179877 0.938548
vn 0.949161 0.314791 0.000000
vn 0.945978 0.324232 0.000000
vn 0.945978 0.324232 0.000000
vn 0.949161 0.314791 0.000000
vn 0.977664 0.210173 0.000000
vn 0.923822 0.382823 0.000000
vn 0.923822 0.382823 0.000000
vn 0.977664 0.210173 0.000000
vn 0.973146 -0.230188 0.000000
vn 0.986063 -0.166372 0.000000
vn 0.986063 -0.166372 0.000000
vn 0.973146 -0.230188 0.000000
vn 0.305862 -0.952076 0.000000
vn 0.307093 -0.951679 0.000000
vn 0.307093 -0.951679 0.000000
vn 0.305862 -0.952076 0.000000
vn -0.926903 -0.375301 0.000000
vn -0.927871 -0.372902 0.000000
vn -0.927871 -0.372902 0.000000
vn -0.926903 -0.375301 0.000000
vn -0.827931 0.560830 0.000000
vn -0.749795 0.661670 0.000000
vn -0.749795 0.661670 0.000000
vn -0.827931 0.560830 0.000000
vn -0.971131 0.238546 0.000000
vn -0.936552 0.350530 0.000000
vn -0.936552 0.350530 0.000000
vn -0.971131 0.238546 0.000000
vn -0.983198 0.182543 0.000000
vn -0.981331 0.192329 0.000000
vn -0.981331 0.192329 0.000000
vn -0.983198 0.182543 0.000000
vn 0.991417 -0.130738 0.000000
vn 0.991417 -0.130738 0.000000
vn 0.991417 -0.130738 0.000000
vn 0.991417 -0.130738 0.000000
vn 0.981974 -0.189017 0.000000
vn 0.985545 -0.169414 0.000000
vn 0.985545 -0.169414 0.000000
vn 0.981974 -0.189017 0.000000
vn 0.941357 -0.337412 0.000000
vn 0.974369 -0.224956 0.000000
vn 0.974369 -0.224956 0.000000
vn 0.941357 -0.337412 0.000000
vn 0.783324 -0.621613 0.000000
vn 0.856088 -0.516830 0.000000
vn 0.856088 -0.516830 0.000000
vn 0.783324 -0.621613 0.000000
vn -0.996383 0.084978 0.000000
vn -0.977457 0.211136 0.000000
vn -0.977457 0.211136 0.000000
vn -0.996383 0.084978 0.000000
vn -0.998981 0.045127 0.000000
vn -0.986840 0.161699 0.000000
vn -0.986840 0.161699 0.000000
vn -0.998981 0.045127 0.000000
vn -0.874302 0.485383 0.000000
vn -0.864457 0.502707 0.000000
vn -0.864457 0.502707 0.000000
vn -0.874302 0.485383 0.000000
vn -0.846028 0.533138 0.000000
vn -0.846028 0.533138 0.000000
vn -0.846028 0.533138 0.000000
vn -0.846028 0.533138 0.000000
vn 0.989784 -0.142577 0.000000
vn 0.996438 -0.084330 0.000000
vn 0.996438 -0.084330 0.000000
vn 0.989784 -0.142577 0.000000
vn 0.996259 -0.086420 0.000000
vn 0.999154 0.041117 0.000000
vn 0.999154 0.041117 0.000000
vn 0.996259 -0.086420 0.000000
vn 0.891059 0.453887 0.000000
vn 0.889882 0.456191 0.000000
vn 0.889882 0.456191 0.000000
vn 0.891059 0.453887 0.000000
vn -0.448093 -0.893987 0.000000
vn -0.449249 -0.893407 0.000000
vn -0.449249 -0.893407 0.000000
vn -0.448093 -0.893987 0.000000
vn -0.880432 -0.474172 0.000000
vn -0.881045 -0.473032 0.000000
vn -0.881045 -0.473032 0.000000
vn -0.880432 -0.474172 0.000000
vn -0.956944 0.290274 0.000000
vn -0.912202 0.409741 0.000000
vn -0.912202 0.409741 0.000000
vn -0.956944 0.290274 0.000000
vn -0.850314 0.526276 0.000000
vn -0.818012 0.575200 0.000000
vn -0.818012 0.575200 0.000000
vn -0.850314 0.526276 0.000000
s off
f 7/1/1 5/2/2 8/3/3
f 2/4/4 3/5/5 9/6/6
f 1/7/7 2/4/8 9/6/9
f 8/8/10 5/9/11 6/10/12
f 5/11/13 9/6/14 6/12/15
f 3/13/16 6/14/17 9/15/18
f 4/16/19 5/17/20 7/18/21
f 4/19/22 1/20/23 5/21/24
f 9/6/25 5/11/26 1/7/27
f 17/22/28 14/23/29 18/24/30
f 17/25/31 16/26/32 14/27/33
f 10/28/34 20/29/35 13/30/36
f 10/31/37 11/32/38 20/33/39
f 18/34/40 14/35/41 15/36/42
f 14/37/43 19/38/44 15/39/45
f 12/40/46 15/41/47 19/42/48
f 14/43/49 13/44/50 19/45/51
f 20/46/52 19/47/53 13/48/54
f 13/49/55 14/50/56 16/51/57
f 19/52/58 20/53/59 12/54/60
f 11/55/61 12/54/62 20/53/63
f 28/56/64 30/57/65 29/58/66
f 28/59/67 27/60/68 30/61/69
f 22/62/70 23/63/71 31/64/72
f 21/65/73 32/66/74 24/67/75
f 31/64/76 32/68/77 22/62/78
f 21/69/79 22/70/80 32/71/81
f 25/72/82 26/73/83 30/74/84
f 29/58/85 30/57/86 26/75/87
f 25/76/88 31/77/89 26/78/90
f 23/79/91 26/80/92 31/81/93
f 25/76/94 24/82/95 31/77/96
f 32/66/97 31/81/98 24/67/99
f 24/83/100 25/72/101 27/84/102
f 30/61/103 27/60/104 25/85/105
f 37/86/106 39/87/107 40/88/108
f 35/89/109 34/90/110 41/91/111
f 34/90/112 33/92/113 41/91/114
f 37/93/115 40/94/116 38/95/117
f 41/96/118 37/97/119 38/98/120
f 38/99/121 35/100/122 41/101/123
f 37/102/124 36/103/125 39/104/126
f 33/105/127 36/106/128 37/107/129
f 37/108/130 41/109/131 33/110/132
f 46/111/133 49/112/134 50/113/135
f 48/114/136 49/115/137 46/116/138
f 52/117/139 42/118/140 45/119/141
f 43/120/142 42/121/143 52/122/144
f 46/123/145 50/124/146 47/125/147
f 51/126/148 46/127/149 47/128/150
f 47/129/151 44/130/152 51/131/153
f 45/132/154 46/133/155 51/134/156
f 51/135/157 52/136/158 45/137/159
f 46/138/160 45/139/161 48/140/162
f 52/141/163 51/142/164 44/143/165
f 44/143/166 43/144/167 52/141/168
f 62/145/169 60/146/170 61/147/171
f 59/148/172 60/149/173 62/150/174
f 55/151/175 54/152/176 63/153/177
f 64/154/178 53/155/179 56/156/180
f 64/157/181 63/153/182 54/152/183
f 54/158/184 53/159/185 64/160/186
f 58/161/187 57/162/188 62/163/189
f 62/145/190 61/147/191 58/164/192
f 63/165/193 57/166/194 58/167/195
f 58/168/196 55/169/197 63/170/198
f 56/171/199 57/166/200 63/165/201
f 63/170/202 64/154/203 56/156/204
f 57/162/205 56/172/206 59/173/207
f 59/148/208 62/150/209 57/174/210
f 60/175/211 59/176/212 27/177/213 28/178/214
f 59/179/215 56/180/216 24/181/217 27/182/218
f 56/183/219 53/184/220 21/185/221 24/186/222
f 53/159/223 54/158/224 22/70/225 21/69/226
f 54/187/227 55/188/228 23/189/229 22/190/230
f 55/191/231 58/192/232 26/193/233 23/194/234
f 58/164/235 61/147/236 29/58/237 26/75/238
f 61/147/239 60/146/240 28/56/241 29/58/242
f 49/195/243 48/196/244 16/197/245 17/198/246
f 48/199/247 45/200/248 13/201/249 16/202/250
f 45/203/251 42/121/252 10/31/253 13/204/254
f 42/121/255 43/120/256 11/32/257 10/31/258
f 43/205/259 44/206/260 12/207/261 11/208/262
f 44/209/263 47/210/264 15/211/265 12/212/266
f 47/213/267 50/214/268 18/215/269 15/216/270
f 50/217/271 49/218/272 17/219/273 18/220/274
f 39/221/275 36/222/276 4/223/277 7/224/278
f 36/225/279 33/226/280 1/227/281 4/228/282
f 33/229/283 34/230/284 2/231/285 1/232/286
f 34/233/287 35/234/288 3/235/289 2/236/290
f 35/100/291 38/99/292 6/14/293 3/13/294
f 38/237/295 40/238/296 8/239/297 6/240/298
f 40/241/299 39/242/300 7/243/301 8/244/302
