{"asset":{"version":"2.0","generator":"babylon.js glTF exporter for 3dsmax 2021 v20210624.1"},"scene":0,"scenes":[{"nodes":[0]}],"nodes":[{"mesh":0,"name":"Box001"}],"meshes":[{"primitives":[{"attributes":{"POSITION":1,"NORMAL":2,"TEXCOORD_0":3},"indices":0,"material":0}],"name":"Box001"}],"accessors":[{"bufferView":0,"componentType":5123,"count":276,"type":"SCALAR","name":"accessorIndices"},{"bufferView":1,"componentType":5126,"count":276,"max":[0.5,1.0,0.5],"min":[-0.5,0.0,-0.5],"type":"VEC3","name":"accessorPositions"},{"bufferView":1,"byteOffset":3312,"componentType":5126,"count":276,"type":"VEC3","name":"accessorNormals"},{"bufferView":2,"componentType":5126,"count":276,"type":"VEC2","name":"accessorUVs"}],"bufferViews":[{"buffer":0,"byteLength":552,"name":"bufferViewScalar"},{"buffer":0,"byteOffset":552,"byteLength":6624,"byteStride":12,"name":"bufferViewFloatVec3"},{"buffer":0,"byteOffset":7176,"byteLength":2208,"byteStride":8,"name":"bufferViewFloatVec2"}],"buffers":[{"uri":"test_model.bin","byteLength":9384}],"materials":[{"pbrMetallicRoughness":{"baseColorFactor":[0.7,0.141007185,0.141007185,1.0],"metallicFactor":0.0,"roughnessFactor":0.599999964},"doubleSided":true,"name":"Wall Paint","extras":{"babylonSeparateCullingPass":false}}]}